<svg width="600" height="1000" viewBox="0 0 600 1000" fill="none" xmlns="http://www.w3.org/2000/svg">
<rect width="600" height="1000" fill="white"/>
<path d="M300 500H450V570C450 614.183 414.183 650 370 650H300V500Z" fill="#D9D9D9"/>
<path d="M150 430C150 385.817 185.817 350 230 350H300V500H150V430Z" fill="#1E90FF"/>
<path d="M224.5 388C222.842 388 221.253 388.658 220.081 389.831C218.908 391.003 218.25 392.592 218.25 394.25V419.25H193.25C191.592 419.25 190.003 419.908 188.831 421.081C187.658 422.253 187 423.842 187 425.5C187 427.158 187.658 428.747 188.831 429.919C190.003 431.092 191.592 431.75 193.25 431.75H218.25V456.75C218.25 458.408 218.908 459.997 220.081 461.169C221.253 462.342 222.842 463 224.5 463C226.158 463 227.747 462.342 228.919 461.169C230.092 459.997 230.75 458.408 230.75 456.75V431.75H255.75C257.408 431.75 258.997 431.092 260.169 429.919C261.342 428.747 262 427.158 262 425.5C262 423.842 261.342 422.253 260.169 421.081C258.997 419.908 257.408 419.25 255.75 419.25H230.75V394.25C230.75 392.592 230.092 391.003 228.919 389.831C227.747 388.658 226.158 388 224.5 388Z" fill="white"/>
<path d="M300 350H370C414.183 350 450 385.817 450 430V500H300V350Z" fill="#1E90FF"/>
<path d="M410 425H340" stroke="white" stroke-width="20" stroke-linecap="round" stroke-linejoin="round"/>
<path d="M150 500H300V650H230C185.817 650 150 614.183 150 570V500Z" fill="#1E90FF"/>
<path d="M230.875 575L257.125 548.792C257.91 548.007 258.35 546.943 258.35 545.833C258.35 544.724 257.91 543.66 257.125 542.875C256.34 542.09 255.276 541.65 254.167 541.65C253.057 541.65 251.993 542.09 251.208 542.875L225 569.125L198.792 542.875C198.007 542.09 196.943 541.65 195.833 541.65C194.724 541.65 193.66 542.09 192.875 542.875C192.09 543.66 191.65 544.724 191.65 545.833C191.65 546.943 192.09 548.007 192.875 548.792L219.125 575L192.875 601.208C192.484 601.596 192.174 602.057 191.963 602.564C191.751 603.072 191.642 603.617 191.642 604.167C191.642 604.717 191.751 605.261 191.963 605.769C192.174 606.277 192.484 606.738 192.875 607.125C193.262 607.516 193.723 607.826 194.231 608.037C194.739 608.249 195.283 608.358 195.833 608.358C196.383 608.358 196.928 608.249 197.436 608.037C197.943 607.826 198.404 607.516 198.792 607.125L225 580.875L251.208 607.125C251.596 607.516 252.056 607.826 252.564 608.037C253.072 608.249 253.617 608.358 254.167 608.358C254.717 608.358 255.261 608.249 255.769 608.037C256.277 607.826 256.738 607.516 257.125 607.125C257.515 606.738 257.825 606.277 258.037 605.769C258.249 605.261 258.357 604.717 258.357 604.167C258.357 603.617 258.249 603.072 258.037 602.564C257.825 602.057 257.515 601.596 257.125 601.208L230.875 575Z" fill="white"/>
<path d="M336 575H413" stroke="white" stroke-width="20" stroke-linecap="round" stroke-linejoin="round"/>
<circle cx="374.5" cy="545.5" r="11.5" fill="white"/>
<circle cx="374.5" cy="605.5" r="11.5" fill="white"/>
<line x1="150" y1="499" x2="450" y2="499" stroke="#0F5498" stroke-width="2"/>
<line x1="301" y1="350" x2="301" y2="650" stroke="#0F5498" stroke-width="2"/>
</svg>
